<svg width="50" height="50" viewBox="0 0 50 50" fill="none" xmlns="http://www.w3.org/2000/svg">
<path d="M25 1C19.4648 1 15 5.46484 15 11V13H7.09375L7 13.875L3 48.875L2.875 50H47.125L47 48.875L43 13.875L42.9062 13H35V11C35 5.46484 30.5352 1 25 1ZM25 3C29.4648 3 33 6.53516 33 11V13H17V11C17 6.53516 20.5352 3 25 3ZM8.90625 15H15V17.2812C14.4023 17.6289 14 18.2617 14 19C14 20.1055 14.8945 21 16 21C17.1055 21 18 20.1055 18 19C18 18.2617 17.5977 17.6289 17 17.2812V15H33V17.2812C32.4023 17.6289 32 18.2617 32 19C32 20.1055 32.8945 21 34 21C35.1055 21 36 20.1055 36 19C36 18.2617 35.5977 17.6289 35 17.2812V15H41.0938L44.875 48H5.125L8.90625 15Z" fill="black"/>
</svg>
